<svg xml:space="preserve" style="enable-background:new 0 0 181.775 250.342;" viewBox="0 0 181.775 250.342" height="250.342px" width="181.775px" y="0px" x="0px" xmlns:xlink="http://www.w3.org/1999/xlink" xmlns="http://www.w3.org/2000/svg" id="Layer_1" version="1.1">
<g id="Layer_4">
	<polygon points="46.289,22.603 127.888,6.466 181.775,66.203 101.714,83.447" style="fill:#191919;"></polygon>
	<path d="M136.268,35.468c0,0,23.874,29.03,23.874,35.395l-32.009,1.562L136.268,35.468z"></path>
	<g>
		<path d="M141.965,73.564c-4.841,14.454-20.627,22.318-35.08,17.477l-15.359-5.146
			c-14.453-4.841-22.317-20.627-17.477-35.08l2.723-8.127c4.841-14.453,20.627-22.317,35.081-17.476l15.358,5.145
			c14.452,4.841,22.316,20.627,17.477,35.081L141.965,73.564z" style="fill:#333333;"></path>
	</g>
	<polygon points="46.289,22.603 46.289,17.244 127.888,0 127.888,6.466" style="fill:#666666;"></polygon>
	<polygon points="181.775,66.203 181.775,59.121 127.888,0 127.888,6.466" style="fill:#666666;"></polygon>
	<path d="M127.211,30.357l-15.358-5.145c-9.02-3.021-18.558-1.094-25.631,4.293L74.666,69.979
		c2.94,7.258,8.896,13.25,16.859,15.917l15.359,5.146c3.892,1.303,7.878,1.678,11.722,1.259L135.1,34.53
		C132.77,32.763,130.127,31.334,127.211,30.357z" style="fill:#3F3F3F;"></path>
	<path d="M82.235,80.589c2.649,2.298,5.771,4.129,9.29,5.307
		l14.112,4.728l18.069-61.439l-11.854-3.971c-4.328-1.45-8.772-1.752-13.011-1.088L82.235,80.589z" style="opacity:0.3;fill:#666666;enable-background:new    ;"></path>
	<path d="M46.289,17.244c0,0,45.542-4.227,81.601-10.778V0L46.289,17.244z" style="fill:#9C9C9C;"></path>
	<path d="M84.849,9.095c0,0,32.044,0.789,43.04-2.629V0L84.849,9.095z" style="fill:#B3B3B3;"></path>
</g>
<g id="Layer_1_1_">
	<path d="M124.811,219.167c0,0,8.197-7.086,10.584-14.68l-12.149,8.246L124.811,219.167z" style="fill:#8A6A47;"></path>
	<path d="M112.762,230.151c0,0,15.148-2.063,19.303-18.279l-19.443,12.172L112.762,230.151z" style="fill:#8A6A47;"></path>
	<g>
		<path d="M86.957,176.884c5.87,15.793,4.376,39.528-4.627,44.844c-9.004,5.312-27.377-13.259-33.248-29.052
			c-5.87-15.795,1.657-30.294,10.944-34.769C73.265,151.531,81.086,161.089,86.957,176.884z" style="fill:#A88157;"></path>
		<path d="M83.524,173.822c4.692,12.625,3.499,31.602-3.698,35.849c-2.693,1.588-6.432,0.506-10.306-2.132
			c-1.434-0.976-4.122-10.168-5.545-11.513c-1.278-1.209-1.294,5.461-2.493,4.041c-1.424-1.686-2.77-11.672-3.979-13.53
			c-0.964-1.479-1.842,5.183-2.604,3.67c-0.636-1.261-1.193-2.521-1.653-3.759c-4.692-12.629,1.323-24.221,8.75-27.797
			C72.58,153.556,78.832,161.194,83.524,173.822z" style="fill:#BF9465;"></path>
		<path d="M79.503,170.319c2.999,8.07,2.236,20.195-2.363,22.91c-3.319,1.959-9.132-2.438-13.237-8.065
			c-0.688-0.945-0.062-8.608-0.633-9.599c-0.746-1.289-2.645,4.094-3.116,2.822c-0.892-2.399-1.179-4.74-1.016-6.906
			c0.383-5.115,3.272-9.252,6.606-10.856C72.509,157.368,76.505,162.25,79.503,170.319z" style="fill:#D4A470;"></path>
	</g>
	<path d="M110.059,221.22c0,0-5.364,8.207-5.562,20.863c-0.077,4.727,0,0,0,0l-2.474-0.198
		c0,0-1.44-18.376-2.926-18.459C99.098,223.426,105.754,220.871,110.059,221.22z" style="fill:#E8AE00;"></path>
	<path d="M96.33,244.313c-0.07,4.461,2.897,1.93,6.505,2.221c3.609,0.293,6.497,2.775,6.56-1.161
		c0.028-1.886-2.87-3.651-6.478-3.942C99.308,241.138,96.36,242.431,96.33,244.313z" style="fill:#EBB000;"></path>
	<path d="M108.298,220.665c0,0-5.23,8.636-5.23,21.3c0,4.729,0,0,0,0h-2.474c0,0-1.729-18.245-3.216-18.207
		C97.378,223.758,103.991,220.665,108.298,220.665z" style="fill:#FFBF00;"></path>
	<path d="M94.941,244.854c0,4.465,2.926,1.693,6.536,1.693c3.609,0,6.536,2.247,6.536-1.693
		c0-1.887-2.927-3.414-6.536-3.414C97.867,241.44,94.941,242.969,94.941,244.854z" style="fill:#FFBF00;"></path>
	<ellipse ry="13.01" rx="7.556" cy="219.056" cx="103.024" style="fill:#A88157;"></ellipse>
	<ellipse ry="11.353" rx="5.918" cy="218.658" cx="101.771" style="fill:#BF9465;"></ellipse>
	<ellipse ry="9.98" rx="3.747" cy="218.425" cx="99.852" style="fill:#D4A470;"></ellipse>
	<path d="M107.734,230.155c0.003,1.906-2.288,3.334-5.126,3.285c-2.839-0.047-5.152-1.533-5.154-3.436
		c-0.004-1.9,2.305-3.486,5.145-3.445C105.435,226.603,107.731,228.252,107.734,230.155z" style="fill:#A88157;"></path>
	<path d="M105.777,229.923c0.003,1.658-1.795,2.943-4.021,2.932c-2.225-0.014-4.035-1.312-4.04-2.969
		c-0.002-1.656,1.807-3.035,4.03-3.025C103.972,226.869,105.774,228.267,105.777,229.923z" style="fill:#BF9465;"></path>
	<path d="M99.351,245.508c0-2.137,1.026-3.87,2.294-3.87c1.266,0,2.292,1.733,2.292,3.87
		c0,2.138-0.951,4.834-2.219,4.834C100.452,250.342,99.351,247.646,99.351,245.508z" style="fill:#FFBF00;"></path>
	<g>
		<path d="M103.41,243.065c-0.021,2.125-0.967,4.756-2.217,4.756c-0.724,0-1.393-0.881-1.833-2.033
			c0.089,2.086,1.146,4.554,2.359,4.554c1.267,0,2.218-2.696,2.218-4.834C103.937,244.577,103.734,243.733,103.41,243.065z" style="fill:#EBB000;"></path>
	</g>
	<path d="M104.325,228.005c0.001,1.003-1.331,1.781-2.981,1.773c-1.648-0.008-2.99-0.793-2.993-1.797
		c-0.001-1.004,1.337-1.838,2.986-1.832C102.986,226.157,104.323,227.002,104.325,228.005z" style="fill:#D4A470;"></path>
	<path d="M90.074,221.22c0,0-5.365,8.207-5.564,20.863c-0.075,4.727,0,0,0,0l-2.472-0.198
		c0,0-1.441-18.376-2.928-18.459C79.11,223.426,85.768,220.871,90.074,221.22z" style="fill:#E8AE00;"></path>
	<path d="M76.343,244.313c-0.07,4.461,2.897,1.93,6.506,2.221c3.606,0.293,6.497,2.775,6.557-1.161
		c0.031-1.886-2.87-3.651-6.477-3.942C79.321,241.138,76.374,242.431,76.343,244.313z" style="fill:#EBB000;"></path>
	<path d="M88.312,220.665c0,0-5.232,8.636-5.232,21.3c0,4.729,0,0,0,0h-2.474c0,0-1.729-18.245-3.216-18.207
		C77.39,223.758,84.004,220.665,88.312,220.665z" style="fill:#FFBF00;"></path>
	<path d="M74.954,244.854c0,4.465,2.926,1.693,6.536,1.693s6.537,2.247,6.537-1.693
		c0-1.887-2.927-3.414-6.537-3.414S74.954,242.969,74.954,244.854z" style="fill:#FFBF00;"></path>
	<ellipse ry="13.01" rx="7.557" cy="219.056" cx="83.038" style="fill:#A88157;"></ellipse>
	<ellipse ry="11.353" rx="5.919" cy="218.658" cx="81.784" style="fill:#BF9465;"></ellipse>
	<ellipse ry="9.98" rx="3.747" cy="218.425" cx="79.865" style="fill:#D4A470;"></ellipse>
	<path d="M75.642,217.044c0,0,0.872-6.536,14.429,6.77
		c0,0,1.612-6.457-0.385-10.875C87.691,208.521,77.364,203.259,75.642,217.044z" style="opacity:0.7;fill:#8A6A47;enable-background:new    ;"></path>
	<path d="M87.747,230.155c0.002,1.906-2.288,3.334-5.126,3.285c-2.838-0.047-5.15-1.533-5.154-3.436
		c-0.003-1.9,2.306-3.486,5.145-3.445C85.449,226.603,87.745,228.252,87.747,230.155z" style="fill:#A88157;"></path>
	<path d="M85.791,229.923c0.003,1.658-1.795,2.943-4.021,2.932c-2.226-0.014-4.038-1.312-4.04-2.969
		c-0.002-1.656,1.804-3.035,4.03-3.025C83.985,226.869,85.788,228.267,85.791,229.923z" style="fill:#BF9465;"></path>
	<path d="M79.364,245.508c0-2.137,1.027-3.87,2.293-3.87s2.292,1.733,2.292,3.87
		c0,2.138-0.952,4.834-2.217,4.834C80.466,250.342,79.364,247.646,79.364,245.508z" style="fill:#FFBF00;"></path>
	<g>
		<path d="M83.423,243.065c-0.022,2.125-0.965,4.756-2.217,4.756c-0.723,0-1.392-0.881-1.833-2.035
			c0.088,2.087,1.147,4.556,2.359,4.556c1.266,0,2.217-2.696,2.217-4.834C83.95,244.577,83.747,243.733,83.423,243.065z" style="fill:#EBB000;"></path>
	</g>
	<path d="M84.337,228.005c0.002,1.003-1.331,1.781-2.98,1.773c-1.648-0.008-2.992-0.793-2.994-1.797
		s1.338-1.838,2.988-1.832C82.999,226.157,84.334,227.002,84.337,228.005z" style="fill:#D4A470;"></path>
	<path d="M64.871,186.427c0-1.978-3.725-0.878-1.929-13.299c3.008-20.8,16.06-48.012,30.747-48.012
		c16.188,0,29.314,32.904,29.314,54.209c0,21.301-13.126,38.57-29.314,38.57C77.5,217.896,64.871,207.729,64.871,186.427z" style="fill:#A88157;"></path>
	<path d="M122.6,175.177c0-1.496-0.622-2.826-1.585-3.681c0.003-0.183,0.013-0.358,0.013-0.541
		c0-16.994-12.659-43.245-28.275-43.245c-15.615,0-28.273,26.251-28.273,43.245c0,3.235,0.462,6.354,1.312,9.284
		c-0.539,1.072-0.85,2.312-0.85,3.636c0,4.013,2.823,7.267,6.33,7.34c-0.113,0.566-0.18,1.154-0.18,1.761
		c0,4.349,3.099,7.875,6.92,7.875c1.45,0,2.797-0.511,3.909-1.379c0.478,4.393,3.761,7.799,7.75,7.799
		c3.155,0,5.865-2.136,7.1-5.201c0.933,1.218,2.304,1.992,3.836,1.992c2.744,0,4.975-2.471,5.084-5.563
		c0.873,0.562,1.872,0.894,2.943,0.894c3.325,0,6.022-3.066,6.022-6.854c0-0.637-0.082-1.248-0.224-1.833
		c0.241-0.313,0.476-0.636,0.706-0.959c3.585-0.212,6.437-3.577,6.437-7.711c0-1.122-0.213-2.187-0.593-3.146
		C121.963,178.033,122.6,176.69,122.6,175.177z" style="fill:#BF9465;"></path>
	<path d="M112.356,168.685c0-1.26-0.486-2.377-1.238-3.094c0.002-0.152,0.009-0.302,0.009-0.453
		c0-14.279-9.893-36.334-22.098-36.334c-12.203,0-22.096,22.055-22.096,36.334c0,2.719,0.36,5.338,1.025,7.801
		c-0.421,0.9-0.665,1.942-0.665,3.056c0,3.368,2.206,6.103,4.947,6.166c-0.088,0.476-0.139,0.969-0.139,1.478
		c0,3.654,2.42,6.617,5.406,6.617c1.136,0,2.187-0.429,3.057-1.16c0.373,3.692,2.938,6.553,6.057,6.553
		c2.465,0,4.583-1.793,5.547-4.367c0.729,1.021,1.803,1.672,2.997,1.672c2.145,0,3.889-2.075,3.975-4.674
		c0.681,0.472,1.463,0.753,2.302,0.753c2.6,0,4.707-2.579,4.707-5.761c0-0.535-0.065-1.049-0.177-1.539
		c0.188-0.266,0.372-0.534,0.553-0.808c2.8-0.177,5.031-3.006,5.031-6.479c0-0.942-0.169-1.836-0.465-2.645
		C111.858,171.083,112.356,169.957,112.356,168.685z" style="fill:#D4A470;"></path>
	<path d="M105.175,161.614c0-1.018-0.408-1.92-1.043-2.498c0.002-0.125,0.009-0.245,0.009-0.367
		c0-11.542-8.337-29.367-18.621-29.367c-10.286,0-18.623,17.825-18.623,29.367c0,2.197,0.304,4.314,0.863,6.305
		c-0.354,0.729-0.56,1.569-0.56,2.469c0,2.725,1.859,4.934,4.169,4.984c-0.075,0.387-0.118,0.782-0.118,1.193
		c0,2.953,2.041,5.349,4.558,5.349c0.956,0,1.843-0.346,2.574-0.938c0.313,2.984,2.478,5.299,5.104,5.299
		c2.08,0,3.863-1.451,4.675-3.532c0.614,0.827,1.519,1.353,2.527,1.353c1.805,0,3.273-1.678,3.35-3.777
		c0.571,0.379,1.232,0.607,1.938,0.607c2.188,0,3.967-2.084,3.967-4.656c0-0.43-0.056-0.848-0.147-1.243
		c0.159-0.214,0.313-0.433,0.466-0.651c2.359-0.143,4.239-2.43,4.239-5.236c0-0.764-0.143-1.484-0.392-2.138
		C104.758,163.556,105.175,162.644,105.175,161.614z" style="fill:#E6B988;"></path>
	<g>
		<path d="M95.769,178.399c-7.478,22.306,0.322,45.836,14.367,51.149
			c9.774,3.697,18.924-22.555,22.278-39.474c3.683-18.553-0.43-26.18-9.716-30.651C109.46,153.047,101.154,162.333,95.769,178.399z" style="fill:#A88157;"></path>
		<path d="M97.434,173.897c-4.375,11.826-3.291,29.688,11.632,45.607c1.852,1.975,1.609-19.124,4.656-20.629
			c1.816-0.896,2.273,6.303,4.11,4.734c1.64-1.399,3.087-10.045,4.585-11.797c1.107-1.295,2.317,4.364,3.277,2.959
			c0.88-1.289,0.459-10.489,1.169-11.813c0.742-1.386,2.61,5.104,3.116,3.735c4.377-11.826-1.826-22.951-9.25-26.527
			C110.147,155.067,101.807,162.073,97.434,173.897z" style="fill:#BF9465;"></path>
		<path d="M103.171,172.403c-3.571,9.568-3.085,23.752,1.945,26.766c1.14,0.686,2.728-5.396,4.303-6.01
			c1.313-0.514,2.572,4.609,3.995,3.439c1.089-0.896,4.033-12.645,5.1-13.809c1.621-1.773,1.32,6.893,2.663,4.775
			c1.34-2.11,2.471-4.308,3.256-6.41c3.573-9.568-0.479-18.11-5.685-20.617C111.331,156.969,106.743,162.836,103.171,172.403z" style="fill:#D4A470;"></path>
	</g>
	<path d="M132.465,184.985c-3.81,16.586-14.562,45.744-23.635,40.897c-4.876-2.604-10.762-10.778-13.9-21.19
		c2.904,12.791,9.745,21.634,15.207,24.856c9.006,5.313,18.924-22.555,22.278-39.474c0.94-4.738,1.369-8.76,1.338-12.202
		C133.483,180.04,133.059,182.399,132.465,184.985z" style="fill:#8A6A47;"></path>
	<path d="M47.02,180.636c0,0,1.75,25.818,28.622,36.408l0.598,5.021
		C76.24,222.065,49.289,216.308,47.02,180.636z" style="fill:#8A6A47;"></path>
	<path d="M95.688,219.995c0,0,4.336-1.333,6.43,2.436l-3.063-5.662l-3.551,1.051L95.688,219.995z" style="fill:#8A6A47;"></path>
	<path d="M123.061,201.405c0,0,0.294,9.773,9.716,3.582c9.422-6.189-7.949,13.359-13.543,11.078
		c-5.595-2.279,6.919,0.312,11.776-5.065c4.857-5.376-4.418,18.099-15.017,8.978" style="fill:#A88157;"></path>
	<path d="M111.396,226.392c0,0,9.667,1.726,16.014-7.326c6.347-9.056-12.663,0.912-12.663,0.912
		L111.396,226.392z" style="fill:#A88157;"></path>
	<path d="M56.984,209.069c0,0,6.397,5.037,6.397,12.255s7.575,1.397,3.787-6.521" style="fill:#8A6A47;"></path>
	<path d="M66.643,215.969c0,0,2.954,4.701,2.954,7.767s3.51-0.406,2.217-5.107S66.643,215.969,66.643,215.969
		z" style="fill:#8A6A47;"></path>
	<path d="M105.557,215.958c7.172,10.866,22.796-3.841,16.67-1.465c-6.128,2.378-17.025-4.155-12.487-0.37
		c4.538,3.784,26.545-4.966,15.921-3.617c-10.625,1.349-5.975-11.028-5.975-11.028s-8.486-7.131-11.309,4.674" style="fill:#BF9465;"></path>
	<path d="M55.574,201.974c0,0,9.982,10.656,9.982,15.086c0,4.433,4.155-3.158,4.555-0.142
		C70.512,219.935,77.843,208.132,55.574,201.974z" style="fill:#A88157;"></path>
</g>
<g id="Layer_2">
	<path d="M173.191,122.544c-8.249,33.673-43.114,54.068-97.677,40.705
		c-56.608-13.867-76.05-47.567-67.801-81.243C15.964,48.33,45.193,26.553,105.39,41.3C160.465,54.793,181.44,88.868,173.191,122.544
		z" style="fill:#A88157;"></path>
	<path d="M174.038,139.745c0.295-3.008-4.078-1.064-14.733-1.669c-0.143-0.007-0.283-0.019-0.426-0.026
		c5.246-6.188,8.879-13.273,10.712-20.752c7.102-28.984-12.109-63.236-64.199-75.997c-56.936-13.948-85.212,8.67-92.313,37.655
		c-1.803,7.356-2.015,15.147-0.467,22.894c-8.682-4.114-11.455-7.392-12.53-4.719c-0.951,2.363,6.632,11.743,14.865,17.26
		c-6.271-3.219-8.562-5.188-9.31-3.325c-0.772,1.92,7.413,10.487,15.876,15.688c-7.688-1.858-10.326-4.435-11.001-1.366
		C9.8,128.632,43.64,146.28,52.407,148.14c0.031,0.006,0.057,0.008,0.086,0.017c7.134,3.446,15.254,6.387,24.467,8.644
		c9.043,2.217,17.529,3.312,25.438,3.488c0.463,0.152,1.006,0.32,1.664,0.505c8.632,2.407,46.798,2.396,47.667-0.812
		c0.82-3.031-2.711-1.967-10.386-3.871c9.907-0.701,21.126-4.514,21.327-6.574c0.199-1.997-2.744-1.311-9.792-1.354
		C162.73,147.094,173.788,142.282,174.038,139.745z" style="fill:#BF9465;"></path>
	<path d="M142.144,155.789c0.739-2.735-2.409-1.767-9.241-3.463c8.828-0.658,18.831-4.128,19.019-5.986
		c0.181-1.801-2.44-1.173-8.721-1.192c8.78-1.008,18.644-5.379,18.874-7.664c0.271-2.711-3.63-0.948-13.122-1.465
		c-0.125-0.008-0.252-0.015-0.379-0.023c4.691-5.594,7.946-11.988,9.599-18.738c5.095-20.79-2.197-50.535-32.107-59.104
		c-22.706-6.504-19.832,22.143-29.338,19.814c-9.264-2.27,6.632-26.318-20.812-32.725C42.788,37.507,24.09,61.755,18.854,83.126
		c-1.626,6.638-1.838,13.663-0.479,20.642c-7.722-3.685-10.184-6.632-11.148-4.22c-0.854,2.134,5.877,10.567,13.193,15.52
		c-5.577-2.885-7.611-4.654-8.285-2.973c-0.692,1.734,6.575,9.434,14.1,14.1c-6.844-1.652-9.188-3.968-9.795-1.2
		c0,0,16.527,19.077,46.513,11.396c29.985-7.684,42.47,19.495,60.296,21.545C141.076,159.981,142.144,155.789,142.144,155.789z" style="fill:#E0AE77;"></path>
	<g>
		<path d="M82.681,111.312c11.347-25.381-0.938-49.885-15.208-53.38C53.2,54.435,25.432,76.256,28.438,99.357
			c0,0,8.278,23.986,29.548,22.997C83.012,121.191,82.681,111.312,82.681,111.312z" style="fill:#8F612D;"></path>
		<path d="M82.139,111.179c5.713-23.319-1.227-45.058-15.498-48.554
			c-14.272-3.497-30.474,12.573-36.186,35.893c0,0,7.487,20.822,28.583,20.834C80.134,119.367,82.139,111.179,82.139,111.179z" style="fill:#FFFFFF;"></path>
		
			<ellipse ry="13.041" rx="16.65" cy="84.715" cx="60.497" style="fill:#48D0F0;" transform="matrix(0.2379 -0.9713 0.9713 0.2379 -36.178 123.3221)"></ellipse>
		<path d="M81.061,77.162c0.693,4.319,0.542,9.006-0.618,13.741c-3.801,15.525-16.954,25.643-29.375,22.599
			C40.5,110.914,33.87,99.631,34.468,86.763c-1.625,3.64-2.987,7.578-4.012,11.755c0,0,7.487,20.822,28.583,20.834
			c21.095,0.015,23.101-8.173,23.101-8.173C85.253,98.468,84.602,86.235,81.061,77.162z" style="fill:#EDEDED;"></path>
		
			<ellipse ry="7.142" rx="9.118" cy="74.461" cx="56.929" style="fill:#FFFFFF;" transform="matrix(0.238 -0.9713 0.9713 0.238 -28.94 112.0353)"></ellipse>
	</g>
	<g>
		<path d="M149.282,127.735c6.53-26.66-2.404-50.651-16.726-54.159c-14.324-3.509-32.083,7.643-37.758,41.917
			c0,0-1.377,17.324,28.235,22.73C138.911,141.124,149.282,127.735,149.282,127.735z" style="fill:#3F3F3F;"></path>
		<path d="M147.275,127.013c5.732-23.403-1.23-45.217-15.555-48.727
			c-14.321-3.508-30.577,12.618-36.31,36.021c0,0,7.516,20.894,28.685,20.906C145.263,135.226,147.275,127.013,147.275,127.013z" style="fill:#FFFFFF;"></path>
		
			<ellipse ry="13.088" rx="16.711" cy="99.853" cx="125.698" style="fill:#48D0F0;" transform="matrix(0.238 -0.9713 0.9713 0.238 -1.2006 198.1748)"></ellipse>
		<path d="M146.193,92.875c0.695,4.334,0.544,9.039-0.62,13.79c-3.815,15.579-17.015,25.73-29.479,22.679
			c-10.604-2.599-17.256-13.919-16.656-26.834c-1.631,3.653-2.998,7.605-4.024,11.798c0,0,7.517,20.894,28.685,20.906
			s23.18-8.201,23.18-8.201C150.4,114.256,149.747,101.979,146.193,92.875z" style="fill:#EDEDED;"></path>
		
			<ellipse ry="7.168" rx="9.15" cy="89.544" cx="122.133" style="fill:#FFFFFF;" transform="matrix(0.2379 -0.9713 0.9713 0.2379 6.1042 186.8676)"></ellipse>
	</g>
	<path d="M90.776,33.542c0,0,14.844,8.606,10.719,25.446l-7.598-15.565
		C93.897,43.422,93.867,35.584,90.776,33.542z" style="fill:#A88157;"></path>
	<path d="M101.495,58.987c0,0,4.969-15.76,12.866-16.163c7.896-0.402,8.383-2.387,8.383-2.387
		s-4.515,7.542-9.702,8.608C107.854,50.113,101.495,58.987,101.495,58.987z" style="fill:#A88157;"></path>
	<path d="M101.495,58.987c0,0,6.145-18.042-0.728-21.83c0,0,1.49,4.806-1.322,10.427
		C96.631,53.207,101.495,58.987,101.495,58.987z" style="fill:#A88157;"></path>
	<path d="M103.984,46.597c0,0-0.132-6.112,7.904-6.247c0,0-4.039,6.436-5.512,12.439
		c-1.472,6.005-4.883,6.198-4.883,6.198L103.984,46.597z" style="fill:#A88157;"></path>
	<g>
		<g>
			<path d="M54.188,29.964c0.11,0.315,2.464,8.415,26.094,14.204c8.154,1.998,13.659,5.915,16.359,11.643
				c3.498,7.42,0.99,15.433,0.965,15.512h0.001c-0.153,0.473,0.057,0.973,0.471,1.117c0.412,0.143,0.871-0.124,1.023-0.598l0,0
				c0.116-0.355,2.78-8.811-1.029-16.919c-2.907-6.188-8.748-10.396-17.361-12.506C58.132,36.885,54.215,30.034,54.188,29.964" style="fill:#5A3D1C;"></path>
		</g>
		<g>
			<path d="M54.944,27.087c0.118,0.396,2.28,10.151,25.818,16.307c8.041,2.102,13.449,6.1,16.08,11.881
				c3.492,7.681,0.8,15.918,0.771,16.001l0,0c-0.158,0.471,0.047,0.975,0.459,1.123c0.409,0.15,0.873-0.111,1.029-0.583l0,0
				c0.123-0.366,2.969-9.076-0.83-17.43c-2.835-6.234-8.575-10.519-17.06-12.738C59.329,35.926,54.926,27.159,54.944,27.087" style="fill:#5A3D1C;"></path>
		</g>
		<g>
			<path d="M55.222,24.446L55.222,24.446c0.093,0.472,2.549,11.644,26.021,18.173
				c7.908,2.201,13.218,6.263,15.786,12.075c3.489,7.905,0.621,16.451,0.592,16.537l0.001-0.001c-0.164,0.47,0.036,0.977,0.447,1.13
				c0.409,0.154,0.872-0.101,1.035-0.571l0,0c0.131-0.377,3.159-9.343-0.628-17.945c-2.765-6.276-8.403-10.64-16.764-12.964
				C60.026,34.847,55.2,24.535,55.222,24.446" style="fill:#5A3D1C;"></path>
		</g>
		<g>
			<path d="M55.891,21.545c0.107,0.517,2.485,13.411,25.834,20.3c7.787,2.298,13.004,6.431,15.507,12.286
				c3.482,8.151,0.428,16.967,0.396,17.054c-0.012,0.033-0.021,0.067-0.028,0.101l0.028-0.101c-0.167,0.468,0.029,0.977,0.438,1.137
				c0.406,0.16,0.874-0.091,1.042-0.559l0,0c0.138-0.388,3.353-9.612-0.42-18.464c-2.693-6.321-8.234-10.758-16.472-13.187
				C59.839,33.509,55.916,21.663,55.891,21.545" style="fill:#5A3D1C;"></path>
		</g>
		<g>
			<path d="M57.731,20.538" style="fill:#5A3D1C;"></path>
			<path d="M56.393,20.718L56.393,20.718c0.104,0.519,2.573,13.101,25.812,20.353
				c7.679,2.397,12.809,6.605,15.244,12.512c3.472,8.42,0.221,17.467,0.188,17.558l0,0c-0.174,0.466,0.018,0.978,0.425,1.142
				c0.403,0.165,0.873-0.08,1.044-0.546l0,0c0.146-0.399,3.551-9.882-0.202-18.984c-2.625-6.365-8.07-10.875-16.185-13.408
				c-22.273-6.949-26.286-18.437-26.312-18.554" style="fill:#5A3D1C;"></path>
		</g>
		<g>
			<path d="M57.926,18.285" style="fill:#5A3D1C;"></path>
			<path d="M56.766,18.6L56.766,18.6c0.118,0.563,2.806,14.086,25.922,21.696
				c7.563,2.489,12.603,6.768,14.976,12.716c3.457,8.669,0.017,17.99-0.02,18.084l0,0c-0.177,0.465,0.01,0.978,0.416,1.147
				c0.402,0.169,0.873-0.07,1.047-0.535l0,0c0.155-0.41,3.752-10.154,0.02-19.509c-2.556-6.407-7.907-10.992-15.906-13.624
				C61.017,31.267,56.794,18.729,56.766,18.6" style="fill:#5A3D1C;"></path>
		</g>
		<g>
			<path d="M58.391,18.145L58.391,18.145c0.091,0.522,1.758,13.4,24.777,21.376
				c7.452,2.583,12.404,6.929,14.715,12.919c3.444,8.922-0.194,18.516-0.23,18.612l0,0c-0.179,0.463,0,0.979,0.403,1.152
				c0.401,0.174,0.874-0.06,1.054-0.523l0,0c0.163-0.422,3.953-10.425,0.245-20.034c-2.489-6.451-7.75-11.108-15.633-13.839
				C61.539,30.121,58.412,18.262,58.391,18.145" style="fill:#5A3D1C;"></path>
		</g>
		<g>
			<path d="M57.873,16.42L57.873,16.42c0.106,0.568,2.881,13.992,25.775,22.326
				c7.338,2.67,12.201,7.079,14.455,13.102c3.427,9.157-0.405,19.062-0.445,19.161h0.001c-0.185,0.461-0.008,0.98,0.395,1.158
				c0.399,0.177,0.875-0.052,1.056-0.513l0,0c0.174-0.432,4.161-10.698,0.479-20.563c-2.424-6.495-7.593-11.222-15.363-14.05
				C62.132,28.997,57.896,16.55,57.873,16.42" style="fill:#5A3D1C;"></path>
		</g>
		<g>
			<path d="M59.172,16.269L59.172,16.269c0.078,0.526,2.159,13,24.958,21.702
				c7.237,2.763,12.02,7.243,14.211,13.315c3.404,9.432-0.633,19.578-0.675,19.679l0,0c-0.187,0.458-0.016,0.979,0.384,1.161
				c0.4,0.183,0.875-0.043,1.062-0.503l0,0c0.18-0.443,4.367-10.97,0.714-21.093c-2.36-6.539-7.439-11.335-15.101-14.258
				C62.754,27.886,59.19,16.388,59.172,16.269L59.172,16.269" style="fill:#5A3D1C;"></path>
		</g>
		<g>
			<path d="M59.922,15.078L59.922,15.078c0.071,0.529,2.001,13.053,24.69,22.117
				c7.126,2.848,11.825,7.388,13.96,13.496c3.383,9.672-0.855,20.126-0.899,20.231l0.001-0.001c-0.19,0.459-0.022,0.981,0.374,1.167
				c0.398,0.187,0.874-0.034,1.064-0.492l0,0c0.188-0.455,4.578-11.245,0.956-21.627c-2.296-6.58-7.29-11.447-14.844-14.465
				C63.36,26.77,59.939,15.198,59.922,15.078L59.922,15.078" style="fill:#5A3D1C;"></path>
		</g>
	</g>
	<g>
		<g>
			<path d="M156.859,55.116c-0.244,0.229-6.072,6.324-29.704,0.535c-8.154-1.998-14.847-1.069-19.889,2.763
				c-6.532,4.963-8.012,13.228-8.026,13.31v-0.001c-0.083,0.49-0.499,0.836-0.933,0.772c-0.435-0.064-0.717-0.513-0.634-1.003l0,0
				c0.062-0.369,1.606-9.098,8.734-14.527c5.438-4.144,12.563-5.175,21.176-3.065C150.163,59.431,156.802,55.166,156.859,55.116" style="fill:#5A3D1C;"></path>
		</g>
		<g>
			<path d="M157.519,52.215c-0.289,0.297-6.715,7.948-30.433,2.527c-8.102-1.853-14.746-0.807-19.749,3.104
				c-6.648,5.196-8.069,13.746-8.083,13.833l0,0c-0.078,0.49-0.491,0.842-0.926,0.784c-0.434-0.057-0.723-0.502-0.644-0.994l0,0
				c0.06-0.382,1.562-9.42,8.793-15.072c5.396-4.217,12.464-5.365,21.016-3.411C149.544,58.027,157.5,52.287,157.519,52.215" style="fill:#5A3D1C;"></path>
		</g>
		<g>
			<path d="M158.493,49.745L158.493,49.745c-0.301,0.375-7.643,9.147-31.475,4.088
				c-8.03-1.704-14.618-0.556-19.58,3.411c-6.749,5.397-8.155,14.302-8.169,14.391l0.001-0.001
				c-0.074,0.492-0.483,0.849-0.921,0.795c-0.434-0.052-0.727-0.492-0.653-0.984l0,0c0.06-0.395,1.518-9.745,8.853-15.623
				c5.353-4.288,12.369-5.551,20.856-3.749C149.425,56.748,158.471,49.833,158.493,49.745" style="fill:#5A3D1C;"></path>
		</g>
		<g>
			<path d="M159.241,46.864c-0.336,0.408-8.404,10.743-32.292,6.061c-7.968-1.562-14.506-0.309-19.43,3.727
				c-6.856,5.618-8.223,14.848-8.235,14.939c-0.004,0.035-0.012,0.069-0.021,0.104l0.021-0.104
				c-0.068,0.493-0.476,0.854-0.913,0.807c-0.435-0.047-0.73-0.484-0.663-0.977l0,0c0.058-0.408,1.471-10.074,8.905-16.179
				c5.311-4.361,12.274-5.733,20.701-4.081C150.208,55.647,159.166,46.956,159.241,46.864" style="fill:#5A3D1C;"></path>
		</g>
		<g>
			<path d="M158.075,45.12" style="fill:#5A3D1C;"></path>
			<path d="M159.177,45.897L159.177,45.897c-0.33,0.413-8.338,10.429-32.296,6.118
				c-7.919-1.424-14.412-0.063-19.3,4.05c-6.971,5.861-8.271,15.387-8.283,15.483l0,0c-0.062,0.493-0.469,0.858-0.903,0.816
				c-0.437-0.041-0.738-0.474-0.677-0.968l0,0c0.057-0.422,1.421-10.405,8.955-16.741c5.271-4.431,12.186-5.914,20.552-4.408
				c22.964,4.132,31.832-4.2,31.905-4.293" style="fill:#5A3D1C;"></path>
		</g>
		<g>
			<path d="M158.942,43.031" style="fill:#5A3D1C;"></path>
			<path d="M159.827,43.848L159.827,43.848c-0.367,0.444-9.001,11.193-33.016,7.257
				c-7.858-1.289-14.306,0.176-19.157,4.354c-7.074,6.089-8.33,15.946-8.343,16.045l0,0c-0.06,0.493-0.46,0.863-0.897,0.825
				c-0.437-0.036-0.742-0.466-0.684-0.958l0,0c0.052-0.436,1.366-10.737,9.002-17.308c5.228-4.5,12.093-6.092,20.401-4.73
				C150.2,53.115,159.742,43.948,159.827,43.848" style="fill:#5A3D1C;"></path>
		</g>
		<g>
			<path d="M158.595,42.692L158.595,42.692c-0.321,0.421-7.754,11.07-31.853,7.503
				c-7.805-1.154-14.201,0.411-19.021,4.654c-7.178,6.32-8.386,16.51-8.396,16.612l0,0c-0.054,0.493-0.455,0.867-0.891,0.836
				c-0.438-0.033-0.748-0.458-0.692-0.952l0,0c0.051-0.45,1.313-11.072,9.043-17.879c5.188-4.57,12.005-6.269,20.259-5.046
				C150.268,51.857,158.524,42.787,158.595,42.692" style="fill:#5A3D1C;"></path>
		</g>
		<g>
			<path d="M159.852,41.402L159.852,41.402c-0.358,0.454-9.023,11.076-33.179,7.884
				c-7.739-1.023-14.091,0.638-18.873,4.937c-7.271,6.537-8.449,17.092-8.461,17.198l-0.001-0.001
				c-0.05,0.494-0.446,0.873-0.884,0.845c-0.438-0.028-0.751-0.45-0.7-0.944l0,0c0.047-0.463,1.257-11.409,9.08-18.456
				c5.154-4.638,11.922-6.44,20.119-5.357C150.261,50.587,159.77,41.506,159.852,41.402" style="fill:#5A3D1C;"></path>
		</g>
		<g>
			<path d="M158.769,40.667L158.769,40.667c-0.313,0.431-7.924,10.53-32.163,7.708
				c-7.694-0.894-14.004,0.869-18.754,5.24c-7.381,6.79-8.489,17.653-8.499,17.762l0,0c-0.047,0.493-0.439,0.876-0.878,0.853
				c-0.439-0.023-0.756-0.443-0.709-0.937l0,0c0.045-0.476,1.196-11.747,9.115-19.035c5.115-4.708,11.838-6.613,19.982-5.665
				C150.223,49.313,158.698,40.765,158.769,40.667L158.769,40.667" style="fill:#5A3D1C;"></path>
		</g>
		<g>
			<path d="M158.656,39.265L158.656,39.265c-0.308,0.437-7.81,10.65-32.117,8.201
				c-7.638-0.77-13.899,1.086-18.618,5.515c-7.469,7.013-8.544,18.243-8.554,18.356v-0.001c-0.044,0.495-0.436,0.88-0.872,0.862
				c-0.438-0.019-0.759-0.435-0.716-0.929l0,0c0.043-0.491,1.138-12.089,9.147-19.62c5.078-4.774,11.756-6.781,19.849-5.966
				C150.202,48.043,158.584,39.364,158.656,39.265L158.656,39.265" style="fill:#5A3D1C;"></path>
		</g>
	</g>
	<polygon points="65.438,126.507 77.146,163.636 104.832,136.49 
		102.006,133.911 69.1,126.235" style="opacity:0.31;fill:#3F3F3F;enable-background:new    ;"></polygon>
	<g>
		<path d="M68.624,124.966l10.875,29.068l22.507-20.123c0,0-1.492-13.412-14.93-16.702
			C73.642,113.917,68.624,124.966,68.624,124.966z" style="fill:#FFBF00;"></path>
		<path d="M88.426,117.588l-8.927,36.446l22.507-20.123C102.006,133.911,100.61,121.415,88.426,117.588z" style="fill:#D99A00;"></path>
	</g>
	<path d="M73.145,124.243l6.354,29.791l8.421-34.376
		C87.92,119.658,78.109,116.605,73.145,124.243z" style="opacity:0.53;fill:#FFFFFF;enable-background:new    ;"></path>
	<path d="M87.92,119.658c0,0,8.549,6.097,7.335,11.053s-15.756,23.323-15.756,23.323L87.92,119.658z" style="fill:#FFBF00;"></path>
	<path d="M91.051,121.25c-3.918-4.673-8.641-2.381-8.839-2.281l-2.242-4.469c2.909-1.459,9.768-2.597,14.913,3.537L91.051,121.25z"></path>
	<g>
		<g>
			<path d="M78.302,125.491c-18.556-3.636-38.565-9.3-58.311-13.867
				c1.727-6.743,4.16-13.638,6.957-20.648c17.752,3.229,37.429,8.921,57.311,13.955C82.921,111.642,80.82,118.508,78.302,125.491z" style="opacity:0.25;fill:#00D2E8;enable-background:new    ;"></path>
			<g>
				<g>
					<path d="M79.297,125.374c-18.479-3.574-38.407-9.192-58.083-13.764c1.801,0.419,1.309-0.099,1.019,1.079
						c1.67-6.833,4.017-13.81,6.691-20.894c-0.462,1.22-0.282,2.308-1.943,1.989c18.126,3.442,37.925,9.102,57.696,13.888
						c-1.807-0.434-3.059-1.752-2.823-2.928c-1.369,6.815-3.455,13.774-5.911,20.842C76.361,124.368,77.61,125.049,79.297,125.374z
						 M85.29,104.791c-19.825-5.027-39.44-10.732-57.147-14.025c-1.62-0.303-2.749-0.914-3.253,0.292
						c-2.907,7.003-5.401,13.878-7.133,20.588c-0.3,1.151,0.95,2.43,2.759,2.872c19.771,4.798,39.559,10.449,57.663,13.86
						c1.65,0.309,1.5-0.773,1.955-1.975c2.646-6.982,4.838-13.837,6.226-20.526C86.591,104.725,87.1,105.249,85.29,104.791z" style="fill:#E37B7B;"></path>
				</g>
				<g>
					<g style="opacity:0.12;">
						<path d="M79.109,129.753c-17.86-3.232-37.536-8.857-57.327-13.78c1.81,0.451,1.018,1.26,0.795,2.427
							c1.292-6.795,3.322-13.738,5.743-20.791c-0.414,1.214,0.276,0.931-1.436,0.584c18.694,3.762,38.694,9.396,58.299,13.81
							c-1.794-0.404-3.348-0.358-3.044-1.539c-1.74,6.851-4.136,13.844-6.838,20.941C75.764,130.185,77.472,129.458,79.109,129.753z
							 M85.929,109.112c-19.733-4.649-39.625-10.323-57.977-13.931c-1.672-0.328-3.396,0.401-3.85,1.599
							c-2.603,6.966-4.729,13.801-6.03,20.469c-0.221,1.147,1.325,1.153,3.135,1.624c19.812,5.155,39.272,10.815,56.681,13.894
							c1.588,0.276,0.906,0.575,1.417-0.633c2.942-7.018,5.493-13.911,7.303-20.642C86.917,110.331,87.733,109.537,85.929,109.112z"></path>
					</g>
					<g>
						<path d="M79.941,123.592c-18.683-3.676-38.672-9.281-58.269-13.722c1.792,0.408,0.953,1.237,0.66,2.411
							c1.697-6.838,4.063-13.819,6.751-20.907c-0.46,1.22,0.222,0.923-1.417,0.613c17.881,3.352,37.578,9.038,57.388,13.966
							c-1.813-0.452-3.354-0.442-3.12-1.615c-1.34,6.809-3.406,13.763-5.849,20.825C76.504,123.947,78.23,123.255,79.941,123.592z
							 M85.609,103.082c-19.835-5.176-39.321-10.914-56.756-14.123c-1.587-0.292-3.281,0.477-3.791,1.682
							c-2.924,7.007-5.44,13.888-7.202,20.604c-0.301,1.156,1.26,1.118,3.061,1.543c19.721,4.662,39.598,10.292,57.931,13.798
							c1.673,0.317,0.981,0.603,1.438-0.601c2.628-6.977,4.794-13.824,6.149-20.506C86.671,104.327,87.422,103.555,85.609,103.082z" style="fill:#FF8A8A;"></path>
					</g>
				</g>
				<path d="M22.43,111.894c18.193,4.264,36.572,9.367,53.796,12.87c0.19-0.556,0.38-1.11,0.565-1.665
					c-17.383-3.58-35.812-8.668-53.943-12.825C22.705,110.815,22.565,111.355,22.43,111.894z" style="fill:#FFBFBF;"></path>
				<path d="M85.586,103.207c-19.834-5.164-39.331-10.9-56.786-14.115c-1.589-0.292-3.284,0.476-3.793,1.68
					c-0.133,0.32-0.266,0.64-0.396,0.959c0.501-1.201,2.204-1.964,3.807-1.667c17.604,3.26,37.171,8.978,57.003,14.062
					c1.813,0.464,1.048,1.241,0.802,2.396c0.064-0.306,0.13-0.612,0.191-0.917C86.646,104.452,87.4,103.68,85.586,103.207z" style="fill:#FFBFBF;"></path>
			</g>
		</g>
		<path d="M45.493,97.689c7.18,8.486,15.303,17.285,22.271,25.573
			c-6.099-1.478-12.322-3.108-18.607-4.781c-7.208-8.479-14.696-16.955-20.537-24.699C34.104,94.915,39.745,96.246,45.493,97.689z" style="opacity:0.58;fill:#FFFFFF;enable-background:new    ;"></path>
		<path d="M55.466,100.153c7.095,8.406,14.639,16.846,20.761,24.61
			c1.146-3.333,2.207-6.643,3.145-9.923c-3.214-3.562-6.63-7.258-10.07-11.019C64.658,102.59,60.038,101.353,55.466,100.153z" style="opacity:0.38;fill:#FFFFFF;enable-background:new    ;"></path>
	</g>
	<g>
		<g>
			<path d="M89.458,128.64c19.759,4.603,39.746,10.26,58.264,13.846
				c2.541-6.976,4.662-13.83,6.023-20.529c-19.883-5.004-39.595-10.709-57.433-13.993C93.562,114.98,91.165,121.885,89.458,128.64z" style="opacity:0.25;fill:#00D2E8;enable-background:new    ;"></path>
			<g>
				<g>
					<path d="M91.646,129.696c1.651-6.843,3.969-13.828,6.604-20.918c-0.447,1.224-2.161,1.941-3.818,1.634
						c18.082,3.333,37.848,8.953,57.612,13.767c-1.808-0.438-1.004-1.252-0.766-2.424c-1.39,6.807-3.494,13.76-5.971,20.819
						c0.425-1.218-0.266-0.931,1.434-0.593c-18.542-3.668-38.489-9.313-58.159-13.844C90.383,128.554,91.935,128.517,91.646,129.696
						z M94.198,108.03c-2.863,7.009-5.322,13.893-7.031,20.613c-0.293,1.157-1.095,1.947,0.713,2.381
						c19.774,4.77,39.594,10.457,57.771,13.976c1.657,0.319,3.376-0.417,3.841-1.617c2.668-6.975,4.881-13.819,6.292-20.498
						c0.239-1.15-1.312-1.145-3.121-1.604c-19.811-5.043-39.386-10.698-57.043-13.871C94.007,107.121,94.694,106.823,94.198,108.03z" style="fill:#E37B7B;"></path>
				</g>
				<g>
					<g style="opacity:0.12;">
						<path d="M92.003,135.416c1.281-6.806,3.289-13.756,5.679-20.814c-0.408,1.215-1.673,0.529-3.376,0.194
							c18.657,3.672,38.637,9.285,58.25,13.746c-1.796-0.409-1.312,0.104-1.005-1.072c-1.76,6.842-4.174,13.827-6.896,20.918
							c0.469-1.221,0.304-2.307,1.948-1.996c-17.941-3.349-37.654-9.018-57.453-13.918
							C90.958,132.918,92.223,134.243,92.003,135.416z M93.451,113.762c-2.564,6.973-4.664,13.817-5.951,20.495
							c-0.219,1.15-0.733,0.624,1.079,1.096c19.829,5.145,39.337,10.861,56.841,14.062c1.602,0.293,2.71,0.896,3.226-0.311
							c2.966-7.012,5.538-13.896,7.371-20.619c0.316-1.151-0.914-2.424-2.72-2.855c-19.731-4.685-39.595-10.326-57.902-13.832
							C93.723,111.48,93.891,112.562,93.451,113.762z"></path>
					</g>
					<g>
						<path d="M91.746,129.287c1.679-6.848,4.016-13.836,6.664-20.93c-0.453,1.221-1.646,0.562-3.275,0.267
							c17.835,3.237,37.492,8.876,57.29,13.826c-1.812-0.454-1.3,0.072-1.062-1.098c-1.36,6.799-3.443,13.747-5.905,20.801
							c0.424-1.215,0.197-2.307,1.913-1.961c-18.737-3.765-38.74-9.39-58.327-13.782C90.833,126.81,92.034,128.106,91.746,129.287z
							 M94.368,107.613c-2.878,7.014-5.359,13.902-7.098,20.628c-0.297,1.158-0.784,0.646,1.019,1.066
							c19.718,4.625,39.619,10.286,58.021,13.894c1.683,0.33,2.882,0.967,3.341-0.233c2.649-6.97,4.838-13.811,6.217-20.482
							c0.239-1.145-1.069-2.451-2.88-2.929c-19.814-5.186-39.255-10.865-56.638-13.948
							C94.764,105.331,94.863,106.406,94.368,107.613z" style="fill:#FF8A8A;"></path>
					</g>
				</g>
				<path d="M146.167,140.09c-17.353-3.542-35.767-8.626-53.912-12.813c-0.142,0.543-0.279,1.082-0.414,1.623
					c18.203,4.291,36.564,9.39,53.755,12.854C145.789,141.199,145.979,140.646,146.167,140.09z" style="fill:#FFBFBF;"></path>
				<path d="M94.314,107.744c-0.132,0.321-0.263,0.641-0.393,0.961c0.487-1.205,0.377-2.279,1.979-1.996
					c17.552,3.138,37.077,8.801,56.891,13.9c1.812,0.469,3.105,1.771,2.854,2.918c0.066-0.306,0.132-0.611,0.194-0.917
					c0.241-1.146-1.063-2.45-2.876-2.927c-19.813-5.175-39.266-10.854-56.669-13.943C94.708,105.463,94.807,106.538,94.314,107.744z" style="fill:#FFBFBF;"></path>
			</g>
		</g>
		<path d="M114.454,114.602c7.192,8.486,15.309,17.284,22.269,25.568
			c-6.095-1.476-12.313-3.103-18.597-4.774c-7.207-8.479-14.702-16.959-20.576-24.708
			C103.046,111.824,108.698,113.158,114.454,114.602z" style="opacity:0.58;fill:#FFFFFF;enable-background:new    ;"></path>
		<path d="M124.436,117.066c7.097,8.405,14.628,16.844,20.74,24.604
			c1.147-3.334,2.212-6.646,3.154-9.927c-3.208-3.561-6.618-7.254-10.055-11.013C133.633,119.501,129.011,118.266,124.436,117.066z" style="opacity:0.38;fill:#FFFFFF;enable-background:new    ;"></path>
	</g>
</g>
<g id="Layer_3">
	<g>
		<path d="M158.352,33.422C158.254,33.333,158.353,33.423,158.352,33.422
			c0.048,0.053,3.622,8.292,3.622,26.861v27.743l4.602-8.563l4.637,8.563V70.845c0-23.781-5.054-29.082-6.32-30.248L158.352,33.422z" style="fill:#D95D9F;"></path>
	</g>
	<path d="M171.212,88.027V70.845c0-23.781-5.054-29.082-6.32-30.248l-6.539-7.175
		c0,0,10.933,14.316,8.224,46.042L171.212,88.027z" style="fill:#FF6EBB;"></path>
	<polygon points="162.117,94.06 167.035,85.937 171.071,94.564 171.071,88.353 166.576,79.464 
		161.974,88.027" style="fill:#A88157;"></polygon>
	<path d="M158.352,33.422c0,0,11.494,16.449,12.367,25.711c0.872,9.263,0.065,0.756,0.065,0.756
		s-0.062-8.801-3.639-16.109c-0.968-1.978-2.541-3.496-4.021-5.12C157.887,32.913,158.352,33.422,158.352,33.422z" style="fill:#FFB0DA;"></path>
</g>
</svg>
